# Blender v2.93.6 OBJ File: ''
# www.blender.org
mtllib Donut.mtl
o donut
v 0.191416 0.625530 -0.163917
v 0.107746 0.819998 -0.071876
v 0.225686 0.774595 0.098950
v -0.090027 0.773949 -0.134475
v 0.300080 0.578131 0.007655
v 0.194705 0.664336 0.277938
v 0.004349 0.589737 -0.228888
v 0.264177 0.476621 0.172701
v 0.032953 0.553810 0.360238
v 0.441360 0.708649 -0.325444
v 0.091143 0.363107 0.252059
v 0.221955 0.699717 -0.473107
v -0.095753 0.321791 0.181444
v -0.164820 0.507761 0.297639
v -0.282761 0.553164 0.126811
v 0.290603 0.912622 -0.607367
v 0.574241 0.912622 -0.395049
v -0.041165 0.826284 -0.696836
v 0.578700 0.644733 -0.105217
v 0.753570 0.826284 -0.101933
v 0.010187 0.644608 -0.530217
v -0.355354 0.670709 -0.645736
v 0.597905 0.524045 0.131110
v 0.793072 0.670709 0.213923
v 0.528874 0.400215 0.307306
v 0.684923 0.476710 0.489962
v 0.347897 0.254949 0.439150
v 0.450543 0.282711 0.671510
v 0.147350 0.155645 0.471767
v 0.136354 0.127135 0.722610
v -0.064418 0.100536 0.414659
v -0.195415 0.040798 0.633143
v -0.283822 0.091605 0.266994
v -0.479052 0.040798 0.420823
v -0.199208 0.366892 0.025541
v -0.421163 0.155520 0.046769
v -0.658382 0.127136 0.127710
v -0.251781 0.663423 -0.052175
v -0.440369 0.276208 -0.189558
v -0.697884 0.282711 -0.188147
v -0.589734 0.476710 -0.464188
v -0.168685 0.476223 -0.149530
v -0.371337 0.400038 -0.365754
v -0.190360 0.545304 -0.497598
v -0.697884 0.282711 -0.188147
v -0.589734 0.476710 -0.464188
v -0.684924 0.710717 -0.337021
v -0.793073 0.516718 -0.060983
v -0.658382 0.127136 0.127710
v -0.450544 0.904716 -0.518569
v -0.355354 0.670709 -0.645736
v -0.753572 0.361143 0.254874
v -0.479052 0.040798 0.420823
v -0.499002 0.783029 -0.136533
v -0.574242 0.274805 0.547988
v -0.195415 0.040798 0.633143
v -0.570610 0.654578 0.046239
v -0.544455 0.551568 0.255375
v -0.290604 0.274805 0.760307
v 0.136354 0.127135 0.722610
v -0.425717 0.494401 0.449452
v -0.282761 0.553164 0.126811
v -0.251781 0.663423 -0.052175
v -0.164820 0.507761 0.297639
v -0.343813 0.911481 -0.256742
v -0.090027 0.773949 -0.134475
v -0.237913 0.494401 0.590035
v 0.032953 0.553810 0.360238
v -0.135781 1.014491 -0.290577
v 0.083892 1.071658 -0.231338
v 0.107746 0.819998 -0.071876
v -0.136355 1.060292 -0.569670
v -0.041165 0.826284 -0.696836
v 0.195413 1.146629 -0.480202
v 0.290603 0.912622 -0.607367
v 0.271696 1.071658 -0.090755
v 0.225686 0.774595 0.098950
v 0.479051 1.146629 -0.267883
v 0.574241 0.912622 -0.395049
v 0.390434 1.014491 0.103323
v 0.658380 1.060292 0.025231
v 0.753570 0.826284 -0.101933
v 0.416588 0.911481 0.312459
v 0.194705 0.664336 0.277938
v 0.697882 0.904716 0.341088
v 0.793072 0.670709 0.213923
v 0.344980 0.783029 0.495231
v 0.589733 0.710717 0.617128
v 0.684923 0.476710 0.489962
v 0.189792 0.654578 0.615440
v 0.355353 0.516718 0.798677
v 0.450543 0.282711 0.671510
v -0.018241 0.551567 0.649274
v 0.041164 0.361143 0.849777
vt 0.615428 0.381179
vt 0.497695 0.333759
vt 0.511324 0.247578
vt 0.380762 0.383465
vt 0.687070 0.326858
vt 0.665413 0.497882
vt 0.336842 0.313000
vt 0.752803 0.496781
vt 0.618437 0.615922
vt 0.586300 0.095770
vt 0.670185 0.684427
vt 0.393076 0.107634
vt 0.493027 0.749966
vt 0.501599 0.666220
vt 0.383272 0.618894
vt 0.392269 0.023294
vt 0.609317 0.023472
vt 0.195969 0.117432
vt 0.763271 0.178395
vt 0.804641 0.117193
vt 0.243682 0.179663
vt 0.059549 0.288112
vt 0.878779 0.334711
vt 0.940451 0.285833
vt 0.916805 0.495576
vt 0.990455 0.496654
vt 0.870533 0.685302
vt 0.944620 0.708786
vt 0.768660 0.816054
vt 0.811248 0.880672
vt 0.619890 0.889747
vt 0.615907 0.977945
vt 0.425614 0.903447
vt 0.397009 0.980471
vt 0.328905 0.679187
vt 0.246542 0.821000
vt 0.198418 0.886988
vt 0.333193 0.501599
vt 0.129760 0.663031
vt 0.060385 0.715938
vt 0.010874 0.501877
vt 0.253261 0.500753
vt 0.092012 0.500425
vt 0.140165 0.309720
vt 0.086205 0.500578
vt 0.012078 0.504588
vt 0.060686 0.291622
vt 0.127444 0.319901
vt 0.196882 0.120837
vt 0.127444 0.681256
vt 0.060686 0.717553
vt 0.242991 0.175009
vt 0.393693 0.026058
vt 0.226903 0.500578
vt 0.409962 0.094600
vt 0.612135 0.026058
vt 0.254208 0.380947
vt 0.330715 0.285011
vt 0.595286 0.094600
vt 0.808945 0.120836
vt 0.441270 0.231770
vt 0.390468 0.389669
vt 0.343299 0.497237
vt 0.506556 0.344679
vt 0.254208 0.620209
vt 0.386542 0.606547
vt 0.563978 0.231770
vt 0.617503 0.395637
vt 0.330715 0.716146
vt 0.441271 0.769387
vt 0.496712 0.657814
vt 0.242991 0.826148
vt 0.196883 0.888339
vt 0.409962 0.906557
vt 0.393693 0.983117
vt 0.563978 0.769387
vt 0.613000 0.612837
vt 0.595286 0.906557
vt 0.612135 0.983117
vt 0.674534 0.716146
vt 0.762257 0.826148
vt 0.808945 0.888338
vt 0.751040 0.620209
vt 0.660913 0.505216
vt 0.877805 0.681256
vt 0.945142 0.717553
vt 0.778346 0.500578
vt 0.919043 0.500578
vt 0.993750 0.504588
vt 0.751040 0.380947
vt 0.877805 0.319901
vt 0.945142 0.291622
vt 0.674534 0.285011
vt 0.762257 0.175009
vn -0.8059 0.4158 0.4215
vn -0.5632 0.3287 0.7581
vn -0.1025 -0.9906 0.0901
vn -0.1729 0.4164 0.8926
vn -0.4213 -0.8670 -0.2660
vn -0.7462 0.6656 0.0089
vn 0.3818 -0.8842 0.2691
vn -0.4498 -0.4648 -0.7627
vn -0.3681 0.9148 -0.1664
vn 0.4168 -0.7419 -0.5252
vn 0.0388 -0.1312 -0.9906
vn 0.3742 -0.7496 -0.5460
vn 0.6289 -0.1659 -0.7595
vn 0.0231 0.9992 -0.0330
vn 0.2636 0.9155 0.3040
vn 0.3720 0.5555 -0.7437
vn 0.7104 0.5365 -0.4554
vn -0.0403 0.4644 -0.8847
vn 0.4613 -0.7618 -0.4548
vn 0.9083 0.4113 -0.0770
vn 0.3035 -0.7586 -0.5766
vn -0.4445 0.2814 -0.8505
vn 0.5131 -0.7652 -0.3889
vn 0.9262 0.2046 0.3168
vn 0.4851 -0.8124 -0.3236
vn 0.7607 -0.0426 0.6478
vn 0.4260 -0.8600 -0.2810
vn 0.4444 -0.2814 0.8505
vn 0.3532 -0.8980 -0.2625
vn 0.0402 -0.4644 0.8847
vn 0.2751 -0.9169 -0.2893
vn -0.3720 -0.5555 0.7437
vn 0.2465 -0.8979 -0.3648
vn -0.7105 -0.5365 0.4554
vn 0.8883 -0.2777 -0.3658
vn 0.2019 -0.8777 -0.4347
vn -0.9083 -0.4113 0.0769
vn 0.2046 0.6667 0.7166
vn 0.1497 -0.8572 -0.4927
vn -0.9262 -0.2046 -0.3168
vn -0.7606 0.0426 -0.6478
vn 0.7899 -0.5988 0.1324
vn 0.2141 -0.8263 -0.5209
vn 0.2781 -0.7884 -0.5486
vn -0.8591 0.4738 -0.1934
vn -0.9261 -0.2047 -0.3168
vn -0.9557 0.2797 0.0914
vn -0.9082 -0.4113 0.0769
vn -0.6320 0.6714 -0.3871
vn -0.4444 0.2813 -0.8505
vn -0.9026 0.1276 0.4111
vn -0.2891 0.8164 0.4999
vn -0.7104 0.0476 0.7022
vn -0.3720 -0.5554 0.7437
vn -0.1736 0.8471 0.5024
vn -0.2712 0.8489 0.4537
vn -0.4170 0.0555 0.9072
vn -0.1988 0.9036 0.3794
vn 0.2046 0.6667 0.7167
vn 0.0230 0.9992 -0.0330
vn -0.2501 0.7700 0.5869
vn -0.2852 0.9072 0.3094
vn -0.3423 0.7904 0.5079
vn -0.3782 0.7229 0.5783
vn -0.3193 0.8334 -0.4511
vn -0.0402 0.4644 -0.8847
vn 0.0171 0.9277 -0.3729
vn 0.3719 0.5555 -0.7437
vn -0.4647 0.7256 0.5075
vn 0.3104 0.9357 -0.1679
vn 0.7105 0.5365 -0.4554
vn -0.4009 0.8016 0.4436
vn 0.5027 0.8556 0.1232
vn 0.9083 0.4113 -0.0769
vn -0.4896 0.7829 0.3840
vn 0.5558 0.7035 0.4429
vn 0.9262 0.2045 0.3168
vn -0.3821 0.8343 0.3975
vn 0.4592 0.5095 0.7277
vn 0.7606 -0.0426 0.6478
vn -0.4125 0.8601 0.3001
vn 0.2320 0.3118 0.9214
vn 0.4445 -0.2814 0.8505
vn -0.3291 0.8599 0.3902
vn -0.0807 0.1498 0.9854
usemtl it21_mat_DONUT
s 1
f 3/1/1 2/2/2 1/3/3
f 1/3/3 2/2/2 4/4/4
f 5/5/5 3/1/1 1/3/3
f 3/1/1 5/5/5 6/6/6
f 7/7/7 1/3/3 4/4/4
f 5/5/5 8/8/8 6/6/6
f 6/6/6 8/8/8 9/9/9
f 5/5/5 1/3/3 10/10/10
f 8/8/8 11/11/11 9/9/9
f 12/12/12 10/10/10 1/3/3
f 12/12/12 1/3/3 7/7/7
f 11/11/11 13/13/13 9/9/9
f 13/13/13 14/14/14 9/9/9
f 15/15/15 14/14/14 13/13/13
f 10/10/10 12/12/12 16/16/16
f 17/17/17 10/10/10 16/16/16
f 18/18/18 16/16/16 12/12/12
f 19/19/19 10/10/10 17/17/17
f 19/19/19 5/5/5 10/10/10
f 20/20/20 19/19/19 17/17/17
f 21/21/21 18/18/18 12/12/12
f 21/21/21 12/12/12 7/7/7
f 22/22/22 18/18/18 21/21/21
f 23/23/23 19/19/19 20/20/20
f 19/19/19 23/23/23 5/5/5
f 24/24/24 23/23/23 20/20/20
f 23/23/23 8/8/8 5/5/5
f 25/25/25 23/23/23 24/24/24
f 23/23/23 25/25/25 8/8/8
f 26/26/26 25/25/25 24/24/24
f 25/25/25 27/27/27 8/8/8
f 25/25/25 26/26/26 27/27/27
f 27/27/27 11/11/11 8/8/8
f 26/26/26 28/28/28 27/27/27
f 27/27/27 28/28/28 29/29/29
f 27/27/27 29/29/29 11/11/11
f 28/28/28 30/30/30 29/29/29
f 11/11/11 29/29/29 31/31/31
f 29/29/29 30/30/30 31/31/31
f 31/31/31 13/13/13 11/11/11
f 30/30/30 32/32/32 31/31/31
f 33/33/33 31/31/31 32/32/32
f 31/31/31 33/33/33 13/13/13
f 34/34/34 33/33/33 32/32/32
f 35/35/35 13/13/13 33/33/33
f 35/35/35 15/15/15 13/13/13
f 36/36/36 33/33/33 34/34/34
f 36/36/36 35/35/35 33/33/33
f 37/37/37 36/36/36 34/34/34
f 15/15/15 35/35/35 38/38/38
f 39/39/39 36/36/36 37/37/37
f 36/36/36 39/39/39 35/35/35
f 40/40/40 39/39/39 37/37/37
f 39/39/39 40/40/40 41/41/41
f 35/35/35 42/42/42 38/38/38
f 39/39/39 42/42/42 35/35/35
f 38/38/38 42/42/42 4/4/4
f 42/42/42 7/7/7 4/4/4
f 43/43/43 39/39/39 41/41/41
f 39/39/39 43/43/43 42/42/42
f 43/43/43 41/41/41 44/44/44
f 43/43/43 44/44/44 42/42/42
f 44/44/44 7/7/7 42/42/42
f 41/41/41 22/22/22 44/44/44
f 44/44/44 21/21/21 7/7/7
f 44/44/44 22/22/22 21/21/21
f 47/45/45 46/46/41 45/47/46
f 47/45/45 45/47/46 48/48/47
f 48/48/47 45/47/46 49/49/48
f 50/50/49 46/46/41 47/45/45
f 50/50/49 51/51/50 46/46/41
f 48/48/47 49/49/48 52/52/51
f 52/52/51 49/49/48 53/53/34
f 54/54/52 47/45/45 48/48/47
f 52/52/51 53/53/34 55/55/53
f 55/55/53 53/53/34 56/56/54
f 57/57/55 48/48/47 52/52/51
f 54/54/52 48/48/47 57/57/55
f 58/58/56 52/52/51 55/55/53
f 57/57/55 52/52/51 58/58/56
f 55/55/53 56/56/54 59/59/57
f 59/59/57 56/56/54 60/60/30
f 58/58/56 55/55/53 61/61/58
f 61/61/58 55/55/53 59/59/57
f 62/62/15 57/57/55 58/58/56
f 62/62/15 58/58/56 61/61/58
f 63/63/59 57/57/55 62/62/15
f 63/63/59 54/54/52 57/57/55
f 62/62/15 61/61/58 64/64/60
f 63/63/59 65/65/61 54/54/52
f 65/65/61 47/45/45 54/54/52
f 65/65/61 50/50/49 47/45/45
f 63/63/59 66/66/4 65/65/61
f 64/64/60 61/61/58 67/67/62
f 61/61/58 59/59/57 67/67/62
f 68/68/9 64/64/60 67/67/62
f 66/66/4 69/69/63 65/65/61
f 69/69/63 50/50/49 65/65/61
f 66/66/4 70/70/64 69/69/63
f 66/66/4 71/71/2 70/70/64
f 69/69/63 72/72/65 50/50/49
f 70/70/64 72/72/65 69/69/63
f 72/72/65 51/51/50 50/50/49
f 72/72/65 73/73/66 51/51/50
f 74/74/67 73/73/66 72/72/65
f 70/70/64 74/74/67 72/72/65
f 74/74/67 75/75/68 73/73/66
f 71/71/2 76/76/69 70/70/64
f 76/76/69 74/74/67 70/70/64
f 77/77/1 76/76/69 71/71/2
f 78/78/70 75/75/68 74/74/67
f 76/76/69 78/78/70 74/74/67
f 78/78/70 79/79/71 75/75/68
f 77/77/1 80/80/72 76/76/69
f 80/80/72 78/78/70 76/76/69
f 81/81/73 79/79/71 78/78/70
f 80/80/72 81/81/73 78/78/70
f 81/81/73 82/82/74 79/79/71
f 77/77/1 83/83/75 80/80/72
f 83/83/75 81/81/73 80/80/72
f 84/84/6 83/83/75 77/77/1
f 85/85/76 82/82/74 81/81/73
f 83/83/75 85/85/76 81/81/73
f 85/85/76 86/86/77 82/82/74
f 84/84/6 87/87/78 83/83/75
f 87/87/78 85/85/76 83/83/75
f 88/88/79 86/86/77 85/85/76
f 87/87/78 88/88/79 85/85/76
f 88/88/79 89/89/80 86/86/77
f 84/84/6 90/90/81 87/87/78
f 90/90/81 88/88/79 87/87/78
f 84/84/6 68/68/9 90/90/81
f 91/91/82 89/89/80 88/88/79
f 90/90/81 91/91/82 88/88/79
f 91/91/82 92/92/83 89/89/80
f 68/68/9 93/93/84 90/90/81
f 93/93/84 91/91/82 90/90/81
f 68/68/9 67/67/62 93/93/84
f 94/94/85 92/92/83 91/91/82
f 93/93/84 94/94/85 91/91/82
f 67/67/62 94/94/85 93/93/84
f 94/94/85 60/60/30 92/92/83
f 67/67/62 59/59/57 94/94/85
f 59/59/57 60/60/30 94/94/85
