# Blender v2.93.6 OBJ File: ''
# www.blender.org
mtllib Waza Up.mtl
o maru
v -0.074281 1.411354 -0.325442
v -0.080461 1.658325 -0.352518
v -0.225445 1.658325 -0.282697
v -0.208129 1.411354 -0.260984
v -0.325775 1.658325 -0.156885
v -0.300753 1.411354 -0.144835
v -0.361583 1.658325 0.000000
v -0.333812 1.411354 0.000000
v -0.325775 1.658325 0.156886
v -0.300753 1.411354 0.144836
v -0.225445 1.658325 0.282699
v -0.208129 1.411354 0.260985
v -0.080461 1.658325 0.352518
v -0.074281 1.411354 0.325442
v 0.080461 1.658325 0.352518
v 0.074281 1.411354 0.325442
v 0.225445 1.658325 0.282699
v 0.208129 1.411354 0.260985
v 0.325775 1.658325 0.156886
v 0.300753 1.411354 0.144836
v 0.361583 1.658325 0.000000
v 0.333812 1.411354 0.000000
v 0.325775 1.658325 -0.156885
v 0.300753 1.411354 -0.144835
v 0.225445 1.658325 -0.282697
v 0.208129 1.411354 -0.260984
v 0.080461 1.658325 -0.352518
v 0.074281 1.411354 -0.325442
v -0.080461 1.658325 -0.352518
v -0.074281 1.411354 -0.325442
v -0.225445 1.658325 -0.282697
v -0.080461 1.658325 -0.352518
v 0.080461 1.658325 -0.352518
v 0.225445 1.658325 -0.282697
v -0.325775 1.658325 -0.156885
v 0.325775 1.658325 -0.156885
v -0.361583 1.658325 0.000000
v 0.361583 1.658325 0.000000
v -0.325775 1.658325 0.156886
v 0.325775 1.658325 0.156886
v -0.225445 1.658325 0.282699
v 0.225445 1.658325 0.282699
v -0.080461 1.658325 0.352518
v 0.080461 1.658325 0.352518
v -0.164106 1.164601 -0.719001
v -0.074281 1.411354 -0.325442
v -0.208129 1.411354 -0.260984
v -0.459819 1.164601 -0.576594
v -0.183801 0.782999 -0.805292
v -0.300753 1.411354 -0.144835
v -0.515004 0.782999 -0.645794
v -0.158812 0.362409 -0.695808
v -0.664459 1.164601 -0.319986
v -0.333812 1.411354 0.000000
v -0.444986 0.362409 -0.557995
v -0.106614 0.078951 -0.467110
v -0.744204 0.782999 -0.358389
v -0.298728 0.078951 -0.374594
v -0.737492 1.164601 0.000000
v -0.300753 1.411354 0.144836
v -0.643025 0.362409 -0.309664
v -0.826002 0.782999 0.000000
v -0.664459 1.164601 0.319986
v -0.208129 1.411354 0.260985
v -0.713703 0.362409 0.000000
v -0.459819 1.164600 0.576595
v -0.074281 1.411354 0.325442
v -0.744204 0.782999 0.358389
v -0.476374 1.050120 0.597355
v -0.164106 1.164600 0.719002
v 0.074281 1.411354 0.325442
v -0.515004 0.782999 0.645795
v -0.170015 1.050120 0.744889
v -0.451988 0.404468 0.566776
v 0.164106 1.164600 0.719002
v 0.170015 1.050120 0.744889
v 0.208129 1.411354 0.260985
v 0.459819 1.164600 0.576595
v 0.476374 1.050120 0.597355
v 0.300753 1.411354 0.144836
v 0.664459 1.164601 0.319986
v 0.515004 0.782999 0.645795
v 0.333812 1.411354 0.000000
v 0.744204 0.782999 0.358389
v 0.737492 1.164601 0.000000
v 0.300753 1.411354 -0.144835
v 0.451988 0.404468 0.566776
v 0.664459 1.164601 -0.319986
v 0.208129 1.411354 -0.260984
v 0.826002 0.782999 0.000000
v 0.459819 1.164601 -0.576594
v 0.074281 1.411354 -0.325442
v 0.744204 0.782999 -0.358389
v 0.164106 1.164601 -0.719001
v -0.074281 1.411354 -0.325442
v -0.164106 1.164601 -0.719001
v 0.515004 0.782999 -0.645794
v 0.183801 0.782999 -0.805292
v -0.183801 0.782999 -0.805292
v 0.643025 0.362409 -0.309664
v 0.158812 0.362409 -0.695808
v -0.158812 0.362409 -0.695808
v 0.444986 0.362409 -0.557995
v 0.106614 0.078951 -0.467110
v -0.106614 0.078951 -0.467110
v 0.298728 0.078951 -0.374594
v 0.431676 0.078951 -0.207884
v -0.431676 0.078951 -0.207884
v 0.479123 0.078951 0.000000
v 0.713703 0.362409 0.000000
v -0.479123 0.078951 0.000000
v 0.431676 0.078951 0.207884
v 0.643025 0.362409 0.309664
v -0.643025 0.362409 0.309664
v 0.444986 0.362409 0.557996
v -0.444986 0.362409 0.557996
v -0.161311 0.404468 0.706757
v -0.431676 0.078951 0.207884
v -0.158812 0.362409 0.695808
v 0.161311 0.404468 0.706757
v -0.298728 0.078951 0.374594
v 0.298728 0.078951 0.374594
v 0.106614 0.078951 0.467110
v -0.106614 0.078951 0.467110
v 0.158812 0.362409 0.695808
v 0.161311 0.404468 0.706757
v 0.515004 0.782999 0.645795
v 0.451988 0.404468 0.566776
v 0.183801 0.782999 0.805292
v 0.476374 1.050120 0.597355
v -0.161311 0.404468 0.706757
v 0.170015 1.050120 0.744889
v -0.183801 0.782999 0.805292
v -0.451988 0.404468 0.566776
v -0.170015 1.050120 0.744889
v -0.515004 0.782999 0.645795
v -0.476374 1.050120 0.597355
vt 0.085605 0.620618
vt 0.016296 0.620618
vt 0.016296 0.503010
vt 0.085605 0.503010
vt 0.154914 0.620618
vt 0.154914 0.503010
vt 0.224223 0.620618
vt 0.224223 0.503010
vt 0.293533 0.620618
vt 0.293533 0.503010
vt 0.362841 0.620618
vt 0.362841 0.503010
vt 0.432151 0.620618
vt 0.432151 0.503010
vt 0.501460 0.620618
vt 0.501460 0.503010
vt 0.570770 0.620618
vt 0.570770 0.503010
vt 0.640078 0.620618
vt 0.640078 0.503010
vt 0.709388 0.620618
vt 0.709388 0.503010
vt 0.778697 0.620618
vt 0.778697 0.503010
vt 0.848006 0.620618
vt 0.848006 0.503010
vt 0.917315 0.620618
vt 0.917315 0.503010
vt 0.986625 0.620618
vt 0.986625 0.503010
vt 0.985448 0.773267
vt 0.985448 0.852111
vt 0.951239 0.923146
vt 0.951239 0.702231
vt 0.889597 0.972303
vt 0.889597 0.653075
vt 0.812731 0.989847
vt 0.812731 0.635530
vt 0.735864 0.972303
vt 0.735864 0.653075
vt 0.674222 0.923146
vt 0.674222 0.702231
vt 0.640014 0.852111
vt 0.640014 0.773267
vt 0.072889 0.490189
vt 0.001460 0.490189
vt 0.001460 0.367655
vt 0.072889 0.367655
vt 0.001216 0.244866
vt 0.144317 0.490189
vt 0.072889 0.244501
vt 0.001460 0.095143
vt 0.144317 0.367655
vt 0.215746 0.490189
vt 0.072889 0.095143
vt 0.001460 0.002958
vt 0.144317 0.244501
vt 0.072889 0.002958
vt 0.215746 0.367655
vt 0.287175 0.490189
vt 0.144317 0.095143
vt 0.215746 0.244501
vt 0.287174 0.367655
vt 0.358603 0.490189
vt 0.215746 0.095143
vt 0.358603 0.367655
vt 0.430031 0.490189
vt 0.287174 0.244501
vt 0.358603 0.330709
vt 0.430032 0.367655
vt 0.501460 0.490189
vt 0.358603 0.244501
vt 0.430032 0.330709
vt 0.358603 0.110078
vt 0.501460 0.367655
vt 0.501460 0.330709
vt 0.572889 0.490189
vt 0.572889 0.367655
vt 0.572889 0.330709
vt 0.644317 0.490189
vt 0.644317 0.367655
vt 0.572889 0.244501
vt 0.715746 0.490189
vt 0.644317 0.244501
vt 0.715746 0.367655
vt 0.787175 0.490189
vt 0.572888 0.110078
vt 0.787174 0.367655
vt 0.858603 0.490189
vt 0.715746 0.244501
vt 0.858603 0.367655
vt 0.930031 0.490189
vt 0.787174 0.244501
vt 0.930032 0.367655
vt 1.001461 0.490189
vt 1.001460 0.367655
vt 0.858603 0.244501
vt 0.930032 0.244501
vt 1.001904 0.244866
vt 0.787174 0.095143
vt 0.930032 0.095143
vt 1.001460 0.095143
vt 0.858603 0.095143
vt 0.930032 0.002958
vt 1.001460 0.002958
vt 0.858603 0.002958
vt 0.787174 0.002958
vt 0.144317 0.002958
vt 0.715746 0.002958
vt 0.715746 0.095143
vt 0.215746 0.002958
vt 0.644317 0.002958
vt 0.644317 0.095143
vt 0.287174 0.095143
vt 0.572889 0.095143
vt 0.358603 0.095143
vt 0.430032 0.110078
vt 0.287174 0.002958
vt 0.430032 0.095143
vt 0.501460 0.110078
vt 0.358603 0.002958
vt 0.572889 0.002958
vt 0.501460 0.002958
vt 0.430032 0.002958
vt 0.501460 0.095143
vt 0.554278 0.628822
vt 0.554279 0.850203
vt 0.389880 0.628822
vt 0.389880 0.850203
vt 0.554279 0.992179
vt 0.225483 0.628822
vt 0.389880 0.992179
vt 0.225483 0.850203
vt 0.061084 0.628822
vt 0.225483 0.992179
vt 0.061084 0.850203
vt 0.061084 0.992179
vn -0.0676 0.9941 -0.0847
vn -0.0241 0.9941 -0.1057
vn -0.1582 0.7029 -0.6935
vn -0.4434 0.7029 -0.5561
vn -0.0977 0.9941 -0.0471
vn -0.6408 0.7029 -0.3086
vn -0.1084 0.9941 0.0000
vn -0.7113 0.7029 -0.0000
vn -0.0977 0.9941 0.0470
vn -0.6408 0.7029 0.3086
vn -0.0675 0.9941 0.0848
vn -0.4434 0.7029 0.5561
vn -0.0242 0.9941 0.1057
vn -0.1583 0.7029 0.6934
vn 0.0241 0.9941 0.1057
vn 0.1583 0.7029 0.6934
vn 0.0676 0.9941 0.0847
vn 0.4434 0.7029 0.5561
vn 0.0977 0.9941 0.0471
vn 0.6409 0.7029 0.3086
vn 0.1084 0.9941 -0.0000
vn 0.7113 0.7029 0.0000
vn 0.0977 0.9941 -0.0470
vn 0.6408 0.7029 -0.3086
vn 0.0675 0.9941 -0.0848
vn 0.4434 0.7029 -0.5561
vn 0.0242 0.9941 -0.1057
vn 0.1583 0.7029 -0.6934
vn -0.1583 0.7029 -0.6934
vn 0.0241 0.9941 -0.1057
vn -0.0676 0.9941 -0.0848
vn 0.0676 0.9941 -0.0848
vn -0.0977 0.9941 -0.0470
vn 0.0977 0.9941 0.0470
vn -0.0676 0.9941 0.0848
vn 0.0676 0.9941 0.0848
vn -0.0241 0.9941 0.1057
vn -0.4435 0.7029 -0.5561
vn -0.1894 0.5247 -0.8299
vn -0.5308 0.5247 -0.6656
vn -0.2224 -0.0272 -0.9746
vn -0.6233 -0.0272 -0.7815
vn -0.2034 -0.4051 -0.8914
vn -0.7670 0.5247 -0.3693
vn -0.5700 -0.4051 -0.7148
vn -0.0267 -0.9928 -0.1166
vn -0.9006 -0.0272 -0.4337
vn -0.0746 -0.9928 -0.0935
vn -0.8513 0.5247 0.0000
vn -0.8237 -0.4051 -0.3967
vn -0.9996 -0.0272 0.0000
vn -0.7670 0.5247 0.3694
vn -0.4435 0.7029 0.5561
vn -0.9143 -0.4051 0.0000
vn -0.5473 0.5990 0.5845
vn -0.9006 -0.0272 0.4337
vn -0.6625 0.2253 0.7143
vn -0.1552 0.7168 0.6798
vn -0.6412 -0.0405 0.7663
vn -0.2168 0.2259 0.9497
vn -0.6560 -0.2573 0.7096
vn 0.1552 0.7168 0.6798
vn 0.2168 0.2259 0.9497
vn 0.4435 0.7029 0.5561
vn 0.5473 0.5990 0.5845
vn 0.6625 0.2253 0.7143
vn 0.6408 0.7029 0.3086
vn 0.7670 0.5247 0.3694
vn 0.6412 -0.0405 0.7663
vn 0.9006 -0.0272 0.4337
vn 0.8513 0.5247 -0.0000
vn 0.6560 -0.2573 0.7096
vn 0.7670 0.5247 -0.3694
vn 0.4435 0.7029 -0.5561
vn 0.9996 -0.0272 -0.0000
vn 0.5308 0.5247 -0.6655
vn 0.9006 -0.0272 -0.4337
vn 0.1894 0.5247 -0.8299
vn 0.6233 -0.0272 -0.7815
vn 0.2224 -0.0272 -0.9746
vn -0.2225 -0.0272 -0.9746
vn 0.8237 -0.4051 -0.3967
vn 0.2034 -0.4051 -0.8914
vn -0.2034 -0.4051 -0.8913
vn 0.5700 -0.4051 -0.7148
vn 0.0266 -0.9928 -0.1166
vn -0.0266 -0.9928 -0.1166
vn 0.0746 -0.9928 -0.0935
vn 0.1078 -0.9928 -0.0519
vn -0.1078 -0.9928 -0.0519
vn 0.1196 -0.9928 0.0000
vn 0.9143 -0.4051 -0.0000
vn -0.1196 -0.9928 0.0000
vn 0.1078 -0.9928 0.0519
vn 0.8237 -0.4051 0.3967
vn -0.8237 -0.4051 0.3967
vn 0.6213 -0.4612 0.6334
vn -0.6214 -0.4612 0.6334
vn -0.2150 -0.2580 0.9419
vn -0.1079 -0.9928 0.0518
vn -0.1795 -0.5910 0.7865
vn 0.2150 -0.2580 0.9419
vn -0.0747 -0.9928 0.0934
vn 0.0746 -0.9928 0.0936
vn 0.0266 -0.9928 0.1167
vn -0.0266 -0.9928 0.1166
vn 0.1795 -0.5910 0.7865
vn 0.2222 -0.0569 0.9734
vn 0.6625 0.2253 0.7144
vn -0.2222 -0.0569 0.9734
vn -0.6625 0.2253 0.7144
usemtl it08_ch_WUP
s 1
f 3/1/1 2/2/2 1/3/3
f 4/4/4 3/1/1 1/3/3
f 5/5/5 3/1/1 4/4/4
f 6/6/6 5/5/5 4/4/4
f 7/7/7 5/5/5 6/6/6
f 8/8/8 7/7/7 6/6/6
f 9/9/9 7/7/7 8/8/8
f 10/10/10 9/9/9 8/8/8
f 11/11/11 9/9/9 10/10/10
f 12/12/12 11/11/11 10/10/10
f 13/13/13 11/11/11 12/12/12
f 14/14/14 13/13/13 12/12/12
f 15/15/15 13/13/13 14/14/14
f 16/16/16 15/15/15 14/14/14
f 17/17/17 15/15/15 16/16/16
f 18/18/18 17/17/17 16/16/16
f 19/19/19 17/17/17 18/18/18
f 20/20/20 19/19/19 18/18/18
f 21/21/21 19/19/19 20/20/20
f 22/22/22 21/21/21 20/20/20
f 23/23/23 21/21/21 22/22/22
f 24/24/24 23/23/23 22/22/22
f 25/25/25 23/23/23 24/24/24
f 26/26/26 25/25/25 24/24/24
f 27/27/27 25/25/25 26/26/26
f 28/28/28 27/27/27 26/26/26
f 29/29/2 27/27/27 28/28/28
f 30/30/29 29/29/2 28/28/28
f 33/31/30 32/32/2 31/33/31
f 31/33/31 34/34/32 33/31/30
f 31/33/31 35/35/33 34/34/32
f 35/35/33 36/36/23 34/34/32
f 35/35/33 37/37/7 36/36/23
f 37/37/7 38/38/21 36/36/23
f 37/37/7 39/39/9 38/38/21
f 39/39/9 40/40/34 38/38/21
f 39/39/9 41/41/35 40/40/34
f 41/41/35 42/42/36 40/40/34
f 41/41/35 43/43/37 42/42/36
f 43/43/37 44/44/15 42/42/36
f 47/45/38 46/46/29 45/47/39
f 48/48/40 47/45/38 45/47/39
f 48/48/40 45/47/39 49/49/41
f 50/50/6 47/45/38 48/48/40
f 51/51/42 48/48/40 49/49/41
f 51/51/42 49/49/41 52/52/43
f 53/53/44 50/50/6 48/48/40
f 53/53/44 48/48/40 51/51/42
f 54/54/8 50/50/6 53/53/44
f 55/55/45 51/51/42 52/52/43
f 55/55/45 52/52/43 56/56/46
f 57/57/47 53/53/44 51/51/42
f 57/57/47 51/51/42 55/55/45
f 58/58/48 55/55/45 56/56/46
f 59/59/49 54/54/8 53/53/44
f 59/59/49 53/53/44 57/57/47
f 60/60/10 54/54/8 59/59/49
f 61/61/50 57/57/47 55/55/45
f 61/61/50 55/55/45 58/58/48
f 62/62/51 59/59/49 57/57/47
f 62/62/51 57/57/47 61/61/50
f 63/63/52 60/60/10 59/59/49
f 63/63/52 59/59/49 62/62/51
f 64/64/53 60/60/10 63/63/52
f 65/65/54 62/62/51 61/61/50
f 66/66/55 64/64/53 63/63/52
f 67/67/14 64/64/53 66/66/55
f 68/68/56 63/63/52 62/62/51
f 68/68/56 62/62/51 65/65/54
f 69/69/57 66/66/55 63/63/52
f 69/69/57 63/63/52 68/68/56
f 70/70/58 67/67/14 66/66/55
f 70/70/58 66/66/55 69/69/57
f 71/71/16 67/67/14 70/70/58
f 68/68/56 72/72/59 69/69/57
f 73/73/60 70/70/58 69/69/57
f 74/74/61 72/72/59 68/68/56
f 75/75/62 70/70/58 73/73/60
f 75/75/62 71/71/16 70/70/58
f 76/76/63 75/75/62 73/73/60
f 77/77/64 71/71/16 75/75/62
f 78/78/65 75/75/62 76/76/63
f 78/78/65 77/77/64 75/75/62
f 79/79/66 78/78/65 76/76/63
f 80/80/67 77/77/64 78/78/65
f 81/81/68 78/78/65 79/79/66
f 81/81/68 80/80/67 78/78/65
f 81/81/68 79/79/66 82/82/69
f 83/83/22 80/80/67 81/81/68
f 82/82/69 84/84/70 81/81/68
f 85/85/71 83/83/22 81/81/68
f 85/85/71 81/81/68 84/84/70
f 86/86/24 83/83/22 85/85/71
f 84/84/70 82/82/69 87/87/72
f 88/88/73 86/86/24 85/85/71
f 89/89/74 86/86/24 88/88/73
f 90/90/75 85/85/71 84/84/70
f 88/88/73 85/85/71 90/90/75
f 91/91/76 89/89/74 88/88/73
f 92/92/28 89/89/74 91/91/76
f 93/93/77 88/88/73 90/90/75
f 91/91/76 88/88/73 93/93/77
f 94/94/78 92/92/28 91/91/76
f 95/95/29 92/92/28 94/94/78
f 96/96/39 95/95/29 94/94/78
f 94/94/78 91/91/76 97/97/79
f 97/97/79 91/91/76 93/93/77
f 96/96/39 94/94/78 98/98/80
f 98/98/80 94/94/78 97/97/79
f 99/99/81 96/96/39 98/98/80
f 97/97/79 93/93/77 100/100/82
f 99/99/81 98/98/80 101/101/83
f 102/102/84 99/99/81 101/101/83
f 98/98/80 97/97/79 103/103/85
f 101/101/83 98/98/80 103/103/85
f 103/103/85 97/97/79 100/100/82
f 102/102/84 101/101/83 104/104/86
f 105/105/87 102/102/84 104/104/86
f 104/104/86 101/101/83 106/106/88
f 105/105/87 104/104/86 106/106/88
f 101/101/83 103/103/85 106/106/88
f 106/106/88 58/58/48 105/105/87
f 106/106/88 103/103/85 107/107/89
f 106/106/88 107/107/89 58/58/48
f 103/103/85 100/100/82 107/107/89
f 107/107/89 108/108/90 58/58/48
f 108/108/90 61/61/50 58/58/48
f 65/65/54 61/61/50 108/108/90
f 107/107/89 100/100/82 109/109/91
f 107/107/89 109/109/91 108/108/90
f 100/100/82 93/93/77 110/110/92
f 100/100/82 110/110/92 109/109/91
f 93/93/77 90/90/75 110/110/92
f 109/109/91 111/111/93 108/108/90
f 111/111/93 65/65/54 108/108/90
f 109/109/91 110/110/92 112/112/94
f 109/109/91 112/112/94 111/111/93
f 110/110/92 90/90/75 113/113/95
f 110/110/92 113/113/95 112/112/94
f 90/90/75 84/84/70 113/113/95
f 114/114/96 65/65/54 111/111/93
f 114/114/96 68/68/56 65/65/54
f 74/74/61 68/68/56 114/114/96
f 115/115/97 113/113/95 84/84/70
f 84/84/70 87/87/72 115/115/97
f 114/114/96 116/116/98 74/74/61
f 117/117/99 74/74/61 116/116/98
f 118/118/100 114/114/96 111/111/93
f 116/116/98 114/114/96 118/118/100
f 112/112/94 118/118/100 111/111/93
f 119/119/101 117/117/99 116/116/98
f 120/120/102 117/117/99 119/119/101
f 121/121/103 116/116/98 118/118/100
f 119/119/101 116/116/98 121/121/103
f 112/112/94 122/122/104 118/118/100
f 122/122/104 121/121/103 118/118/100
f 112/112/94 113/113/95 122/122/104
f 113/113/95 115/115/97 122/122/104
f 122/122/104 123/123/105 121/121/103
f 122/122/104 115/115/97 123/123/105
f 124/124/106 119/119/101 121/121/103
f 123/123/105 124/124/106 121/121/103
f 125/125/107 119/119/101 124/124/106
f 123/123/105 125/125/107 124/124/106
f 115/115/97 125/125/107 123/123/105
f 125/125/107 120/120/102 119/119/101
f 115/115/97 87/87/72 125/125/107
f 87/87/72 120/120/102 125/125/107
f 128/126/72 127/127/69 126/128/102
f 127/127/69 129/129/108 126/128/102
f 127/127/69 130/130/109 129/129/108
f 126/128/102 129/129/108 131/131/99
f 130/130/109 132/132/63 129/129/108
f 129/129/108 133/133/110 131/131/99
f 129/129/108 132/132/63 133/133/110
f 131/131/99 133/133/110 134/134/61
f 132/132/63 135/135/60 133/133/110
f 133/133/110 136/136/59 134/134/61
f 133/133/110 135/135/60 136/136/59
f 135/135/60 137/137/111 136/136/59
