# Blender v2.93.6 OBJ File: ''
# www.blender.org
mtllib Chocolate.mtl
o choco
v 0.573359 0.576824 -0.824607
v -0.074185 0.606503 -1.220842
v -0.165017 0.596146 -1.198146
v -0.486064 0.417695 -0.647798
v 1.219076 0.558437 -0.451479
v -0.844920 0.246620 -0.055046
v 1.241952 0.529891 -0.363132
v 0.925707 0.371892 0.175873
v -1.145648 0.098564 0.472799
v 0.575425 0.196849 0.772871
v -1.119873 0.073565 0.573314
v -0.473485 0.051816 0.951710
v 0.263236 0.040738 1.304959
v 0.175398 0.027298 1.326619
v -0.842364 0.433671 0.001357
v -0.844920 0.246620 -0.055046
v -0.486064 0.417695 -0.647798
v -0.494416 0.607549 -0.591657
v -0.681479 0.567698 0.014572
v -0.144320 0.405480 0.402191
v -0.442436 0.689256 -0.392698
v -0.226987 0.551870 0.276689
v 0.204796 0.579941 -0.192840
v 0.012062 0.673429 -0.130584
v 0.575425 0.196849 0.772871
v 0.903433 0.551778 0.208097
v 0.925707 0.371892 0.175873
v 0.553165 0.376738 0.805104
v 0.470294 0.529511 0.670763
v 0.709340 0.651070 0.263486
v 0.204796 0.579941 -0.192840
v 0.015783 0.545335 0.408648
v -0.144320 0.405480 0.402191
v 0.254848 0.666896 0.001373
v -0.494416 0.607549 -0.591657
v -0.486064 0.417695 -0.647798
v -0.165017 0.596146 -1.198146
v -0.176477 0.766437 -1.133583
v -0.074185 0.606503 -1.220842
v -0.326039 0.748442 -0.590995
v 0.204796 0.579941 -0.192840
v -0.087036 0.781300 -1.160154
v 0.573359 0.576824 -0.824607
v 0.555797 0.755214 -0.790513
v -0.086993 0.870001 -0.998268
v 0.128448 0.732613 -0.328883
v 0.367501 0.854174 -0.736172
v -0.488747 0.233233 0.989762
v -0.473485 0.051816 0.951710
v -1.119873 0.073565 0.573314
v -1.131585 0.259320 0.620122
v -1.145648 0.098564 0.472799
v -1.150406 0.279738 0.526389
v -0.844920 0.246620 -0.055046
v -0.842364 0.433671 0.001357
v -1.021386 0.394853 0.593687
v -0.566877 0.379027 0.855811
v -0.144320 0.405480 0.402191
v -0.782337 0.516412 0.186412
v -0.327837 0.500586 0.448513
v 0.553165 0.376738 0.805104
v 0.575425 0.196849 0.772871
v 0.263236 0.040738 1.304959
v 0.240969 0.220637 1.337185
v 0.175398 0.027298 1.326619
v 0.153133 0.207187 1.358847
v -0.473485 0.051816 0.951710
v -0.488747 0.233233 0.989762
v 0.122214 0.352506 1.263807
v -0.332292 0.368331 1.001704
v -0.144320 0.405480 0.402191
v 0.361269 0.474067 0.856538
v -0.093238 0.489891 0.594419
v 0.555797 0.755214 -0.790513
v 0.573359 0.576824 -0.824607
v 1.219076 0.558437 -0.451479
v 1.196877 0.737239 -0.419504
v 1.241952 0.529891 -0.363132
v 1.219679 0.709812 -0.330884
v 0.925707 0.371892 0.175873
v 0.903433 0.551778 0.208097
v 1.061257 0.830018 -0.336075
v 0.822200 0.708458 0.071212
v 0.606757 0.845845 -0.598180
v 0.367696 0.724283 -0.190892
v 0.204796 0.579941 -0.192840
vt 0.439643 0.489401
vt 0.442487 0.492267
vt 0.475230 0.492109
vt 0.440088 0.461924
vt 0.507390 0.492763
vt 0.440086 0.432037
vt 0.510207 0.490014
vt 0.510576 0.463062
vt 0.440778 0.405844
vt 0.510985 0.433211
vt 0.443974 0.402711
vt 0.476276 0.403186
vt 0.511349 0.406605
vt 0.508592 0.403844
vt 0.451746 0.928487
vt 0.451746 0.498321
vt 0.502373 0.498321
vt 0.502373 0.928487
vt 0.584693 0.549352
vt 0.936734 0.498321
vt 0.584693 0.887454
vt 0.867544 0.549352
vt 0.936734 0.928487
vt 0.867544 0.887454
vt 0.481168 0.427536
vt 0.430540 0.427536
vt 0.481168 -0.002629
vt 0.430540 -0.002629
vt 0.361131 0.047694
vt 0.361131 0.385797
vt -0.003820 0.427536
vt 0.078279 0.047694
vt -0.003820 -0.002630
vt 0.078279 0.385797
vt 0.039419 0.996439
vt 0.447265 0.996439
vt 0.447265 0.935602
vt 0.039419 0.935602
vt -0.042865 0.897230
vt 0.400030 0.852916
vt 0.447265 0.500516
vt 0.017113 0.897230
vt -0.042865 0.500516
vt 0.017113 0.500516
vt 0.056823 0.852916
vt 0.400030 0.570668
vt 0.056823 0.570668
vt 0.030317 -0.069119
vt 0.432712 -0.069119
vt 0.432712 -0.006571
vt 0.030317 -0.006571
vt -0.065909 0.031133
vt -0.006620 0.031133
vt -0.065909 0.428865
vt -0.006620 0.428865
vt 0.078632 0.047495
vt 0.360938 0.047494
vt 0.432712 0.428865
vt 0.078632 0.386472
vt 0.360938 0.386472
vt 0.910466 -0.066415
vt 0.502620 -0.066415
vt 0.502620 -0.005577
vt 0.910466 -0.005577
vt 0.992751 0.032795
vt 0.932773 0.032795
vt 0.992751 0.429509
vt 0.932773 0.429509
vt 0.893062 0.077109
vt 0.893062 0.359356
vt 0.502620 0.429509
vt 0.549856 0.077109
vt 0.549856 0.359356
vt 0.918564 1.001048
vt 0.516169 1.001047
vt 0.516169 0.938499
vt 0.918563 0.938499
vt 1.014790 0.900795
vt 0.955500 0.900795
vt 1.014790 0.503063
vt 0.955500 0.503063
vt 0.870248 0.884433
vt 0.870248 0.545456
vt 0.587943 0.884433
vt 0.587943 0.545456
vt 0.516169 0.503063
vn -0.5796 -0.0565 -0.8129
vn 0.1280 0.2104 -0.9692
vn 0.4996 0.2600 -0.8263
vn -0.8321 -0.0966 -0.5461
vn 0.7971 0.1993 -0.5700
vn -0.8563 0.0683 -0.5120
vn 0.9818 0.0919 0.1660
vn 0.8604 0.0152 0.5093
vn -0.9832 0.0345 -0.1793
vn -0.8204 -0.2171 0.5289
vn -0.4999 -0.2630 0.8252
vn 0.6050 -0.0672 0.7933
vn -0.1282 -0.1927 0.9728
vn -0.8563 0.0684 -0.5120
vn -0.7066 0.6706 -0.2260
vn -0.7132 0.6625 -0.2291
vn -0.4461 0.8301 0.3344
vn -0.1006 0.9671 0.2335
vn -0.1703 0.9770 -0.1286
vn -0.0137 0.8115 0.5841
vn -0.1004 0.9672 0.2334
vn 0.2567 0.9596 0.1154
vn 0.8604 0.0153 0.5093
vn 0.5842 0.6166 0.5278
vn 0.8605 0.0152 0.5093
vn 0.5809 0.6191 0.5285
vn -0.0122 0.8153 0.5789
vn 0.2650 0.9585 0.1052
vn -0.4524 0.8304 0.3253
vn -0.1006 0.9671 0.2336
vn -0.1731 0.9738 -0.1477
vn -0.7132 0.6625 -0.2292
vn -0.6088 0.4555 -0.6495
vn 0.1281 0.2104 -0.9692
vn -0.4394 0.8388 0.3214
vn 0.0750 0.6061 -0.7918
vn 0.4996 0.2601 -0.8263
vn 0.3208 0.8054 -0.4985
vn -0.1999 0.9509 -0.2364
vn -0.0046 0.8200 0.5723
vn 0.2708 0.9570 0.1039
vn -0.8205 -0.2171 0.5289
vn -0.4488 0.4141 0.7919
vn -0.7759 0.2151 0.5930
vn -0.9062 0.4194 -0.0544
vn -0.5171 0.7950 0.3173
vn -0.0118 0.8230 0.5679
vn -0.1591 0.9766 -0.1448
vn 0.2657 0.9591 0.0979
vn 0.6050 -0.0673 0.7934
vn 0.4969 0.3313 0.8021
vn -0.1592 0.1808 0.9706
vn -0.4488 0.4140 0.7920
vn 0.0198 0.7523 0.6585
vn -0.4537 0.8267 0.3329
vn 0.2616 0.9595 0.1044
vn -0.1698 0.9748 -0.1447
vn 0.3208 0.8053 -0.4985
vn 0.6934 0.5873 -0.4174
vn 0.8403 0.4763 0.2590
vn 0.5842 0.6166 0.5277
vn 0.3657 0.9252 0.1015
vn -0.0075 0.8157 0.5784
vn -0.1765 0.9722 -0.1540
vn -0.4538 0.8311 0.3214
usemtl it21_mat_CHOCOLATE
s 1
f 3/1/1 2/2/2 1/3/3
f 1/3/3 4/4/4 3/1/1
f 1/3/3 5/5/5 4/4/4
f 5/5/5 6/6/6 4/4/4
f 5/5/5 7/7/7 6/6/6
f 7/7/7 8/8/8 6/6/6
f 8/8/8 9/9/9 6/6/6
f 8/8/8 10/10/8 9/9/9
f 10/10/8 11/11/10 9/9/9
f 10/10/8 12/12/11 11/11/10
f 10/10/8 13/13/12 12/12/11
f 13/13/12 14/14/13 12/12/11
f 17/15/4 16/16/14 15/17/15
f 18/18/16 17/15/4 15/17/15
f 18/18/16 15/17/15 19/19/17
f 15/17/15 20/20/18 19/19/17
f 21/21/19 18/18/16 19/19/17
f 20/20/18 22/22/20 19/19/17
f 19/19/17 22/22/20 21/21/19
f 20/20/18 23/23/21 22/22/20
f 18/18/16 21/21/19 24/24/22
f 22/22/20 24/24/22 21/21/19
f 23/23/21 18/18/16 24/24/22
f 23/23/21 24/24/22 22/22/20
f 27/25/23 26/26/24 25/27/25
f 26/26/24 28/28/26 25/27/25
f 28/28/26 26/26/24 29/29/27
f 26/26/24 30/30/28 29/29/27
f 26/26/24 31/31/21 30/30/28
f 28/28/26 29/29/27 32/32/29
f 33/33/30 28/28/26 32/32/29
f 31/31/21 33/33/30 32/32/29
f 30/30/28 34/34/31 29/29/27
f 34/34/31 32/32/29 29/29/27
f 31/31/21 34/34/31 30/30/28
f 34/34/31 31/31/21 32/32/29
f 37/35/1 36/36/4 35/37/32
f 38/38/33 37/35/1 35/37/32
f 39/39/34 37/35/1 38/38/33
f 38/38/33 35/37/32 40/40/35
f 35/37/32 41/41/21 40/40/35
f 42/42/36 39/39/34 38/38/33
f 43/43/37 39/39/34 42/42/36
f 44/44/38 43/43/37 42/42/36
f 45/45/39 38/38/33 40/40/35
f 45/45/39 42/42/36 38/38/33
f 41/41/21 46/46/40 40/40/35
f 40/40/35 46/46/40 45/45/39
f 41/41/21 44/44/38 46/46/40
f 42/42/36 45/45/39 47/47/41
f 46/46/40 47/47/41 45/45/39
f 44/44/38 42/42/36 47/47/41
f 44/44/38 47/47/41 46/46/40
f 50/48/42 49/49/11 48/50/43
f 51/51/44 50/48/42 48/50/43
f 52/52/9 50/48/42 51/51/44
f 53/53/45 52/52/9 51/51/44
f 54/54/6 52/52/9 53/53/45
f 55/55/15 54/54/6 53/53/45
f 53/53/45 51/51/44 56/56/46
f 51/51/44 48/50/43 56/56/46
f 55/55/15 53/53/45 56/56/46
f 48/50/43 57/57/47 56/56/46
f 48/50/43 58/58/30 57/57/47
f 59/59/48 55/55/15 56/56/46
f 59/59/48 56/56/46 57/57/47
f 58/58/30 55/55/15 60/60/49
f 58/58/30 60/60/49 57/57/47
f 55/55/15 59/59/48 60/60/49
f 60/60/49 59/59/48 57/57/47
f 63/61/50 62/62/8 61/63/26
f 64/64/51 63/61/50 61/63/26
f 65/65/13 63/61/50 64/64/51
f 66/66/52 65/65/13 64/64/51
f 67/67/11 65/65/13 66/66/52
f 68/68/53 67/67/11 66/66/52
f 64/64/51 61/63/26 69/69/54
f 66/66/52 64/64/51 69/69/54
f 68/68/53 66/66/52 70/70/55
f 66/66/52 69/69/54 70/70/55
f 71/71/30 68/68/53 70/70/55
f 61/63/26 72/72/56 69/69/54
f 61/63/26 71/71/30 72/72/56
f 73/73/57 70/70/55 69/69/54
f 72/72/56 73/73/57 69/69/54
f 73/73/57 71/71/30 70/70/55
f 71/71/30 73/73/57 72/72/56
f 76/74/5 75/75/37 74/76/58
f 77/77/59 76/74/5 74/76/58
f 78/78/7 76/74/5 77/77/59
f 79/79/60 78/78/7 77/77/59
f 80/80/23 78/78/7 79/79/60
f 81/81/61 80/80/23 79/79/60
f 79/79/60 77/77/59 82/82/62
f 77/77/59 74/76/58 82/82/62
f 81/81/61 79/79/60 83/83/63
f 79/79/60 82/82/62 83/83/63
f 74/76/58 84/84/64 82/82/62
f 83/83/63 82/82/62 84/84/64
f 84/84/64 74/76/58 85/85/65
f 85/85/65 83/83/63 84/84/64
f 81/81/61 83/83/63 85/85/65
f 74/76/58 86/86/21 85/85/65
f 86/86/21 81/81/61 85/85/65
