# Blender v2.93.6 OBJ File: ''
# www.blender.org
mtllib Drink.mtl
o wadainokobin
v 0.079190 1.045025 -0.244483
v -0.004939 1.150869 -0.201890
v -0.004939 1.045025 -0.184071
v 0.085910 1.150869 -0.267125
v -0.004939 1.242794 -0.184071
v 0.202083 1.045025 -0.230231
v 0.079190 1.242794 -0.244483
v 0.218620 1.150869 -0.251735
v 0.286496 1.045025 -0.147929
v 0.202083 1.242794 -0.230231
v 0.309775 1.150869 -0.162859
v 0.328913 1.045025 -0.049758
v 0.286496 1.242794 -0.147929
v 0.355579 1.150869 -0.056846
v 0.331579 1.045025 0.034372
v 0.328913 1.242794 -0.049758
v 0.358462 1.150869 0.034004
v 0.244186 1.046499 0.166232
v 0.331579 1.242794 0.034372
v 0.281652 1.150869 0.178072
v 0.123788 1.045025 0.311023
v 0.260453 1.242794 0.167785
v 0.134072 1.150869 0.332755
v -0.004939 1.045025 0.390747
v 0.123788 1.242794 0.311023
v -0.004939 1.150869 0.418846
v -0.004939 1.242794 0.390747
v -0.089069 1.045025 -0.244483
v -0.004939 1.045025 -0.184071
v -0.004939 1.150869 -0.201890
v -0.095788 1.150869 -0.267125
v -0.004939 1.242794 -0.184071
v -0.211962 1.045025 -0.230231
v -0.089069 1.242794 -0.244483
v -0.228498 1.150869 -0.251735
v -0.296374 1.045025 -0.147929
v -0.211962 1.242794 -0.230231
v -0.319653 1.150869 -0.162859
v -0.338792 1.045025 -0.049758
v -0.296374 1.242794 -0.147929
v -0.365458 1.150869 -0.056846
v -0.341458 1.045025 0.034372
v -0.338792 1.242794 -0.049758
v -0.368341 1.150869 0.034004
v -0.254064 1.046499 0.166232
v -0.341458 1.242794 0.034372
v -0.291531 1.150869 0.178072
v -0.133666 1.045025 0.311023
v -0.270331 1.242794 0.167785
v -0.143951 1.150869 0.332755
v -0.004939 1.045025 0.390747
v -0.133666 1.242794 0.311023
v -0.004939 1.150869 0.418846
v -0.004939 1.242794 0.390747
v 0.371913 0.070312 0.244681
v 0.539645 0.185695 0.031944
v 0.428915 0.070312 0.031944
v 0.468039 0.185695 0.299189
v 0.216180 0.070312 0.400415
v 0.614957 0.340928 0.031944
v 0.272399 0.185695 0.494826
v 0.530798 0.340927 0.346035
v 0.638512 0.531844 0.031944
v -0.004939 0.070312 0.457418
v 0.551728 0.531844 0.355827
v 0.581435 0.762609 0.031944
v 0.300866 0.340927 0.575968
v -0.004939 0.185695 0.566434
v 0.502523 0.762609 0.326453
v 0.403071 0.833534 0.031944
v 0.314630 0.531844 0.592925
v 0.348709 0.833534 0.234835
v 0.296046 0.935118 0.031944
v 0.286927 0.762609 0.542046
v -0.004939 0.340927 0.660127
v -0.004939 0.531844 0.679711
v 0.255762 0.935118 0.182281
v 0.263484 1.047974 0.031944
v 0.244186 1.046499 0.166232
v 0.200180 0.833534 0.383362
v 0.145708 0.935118 0.292335
v 0.130749 1.047974 0.261849
v -0.004939 0.762609 0.620960
v -0.004939 0.833534 0.437726
v -0.004939 0.935118 0.332617
v -0.004939 1.047974 0.297415
v -0.140628 1.047974 0.261849
v -0.155587 0.935118 0.292335
v -0.254064 1.046499 0.166232
v -0.210058 0.833534 0.383362
v -0.265641 0.935118 0.182281
v -0.273362 1.047974 0.031944
v -0.305924 0.935118 0.031944
v -0.358588 0.833534 0.234835
v -0.412949 0.833534 0.031944
v -0.296806 0.762609 0.542046
v -0.512401 0.762609 0.326453
v -0.591313 0.762609 0.031944
v -0.324508 0.531844 0.592925
v -0.561607 0.531844 0.355827
v -0.648391 0.531844 0.031944
v -0.310745 0.340927 0.575968
v -0.540676 0.340927 0.346035
v -0.624836 0.340928 0.031944
v -0.282278 0.185695 0.494826
v -0.226058 0.070312 0.400415
v -0.477918 0.185695 0.299189
v -0.549523 0.185695 0.031944
v -0.381791 0.070312 0.244681
v -0.438794 0.070312 0.031944
v 0.371913 0.070312 -0.180793
v 0.428915 0.070312 0.031944
v 0.539645 0.185695 0.031944
v 0.468039 0.185695 -0.235301
v 0.216180 0.070312 -0.336526
v 0.614957 0.340928 0.031944
v 0.272399 0.185695 -0.430939
v -0.004939 0.070312 -0.393530
v 0.530798 0.340928 -0.282148
v 0.638512 0.531844 0.031944
v -0.004939 0.185695 -0.502547
v 0.551728 0.531844 -0.291939
v 0.581435 0.762609 0.031944
v 0.300866 0.340928 -0.512079
v 0.502523 0.762609 -0.262565
v 0.403071 0.833534 0.031944
v 0.314630 0.531844 -0.529037
v -0.004939 0.340928 -0.596240
v 0.348709 0.833534 -0.170947
v 0.296046 0.935118 0.031944
v 0.286927 0.762610 -0.478158
v -0.004939 0.531844 -0.615823
v 0.255762 0.935118 -0.118392
v 0.263484 1.047974 0.031944
v 0.227916 1.047974 -0.100792
v 0.200180 0.833534 -0.319473
v 0.145708 0.935118 -0.228447
v 0.130749 1.047974 -0.197961
v -0.004939 0.762610 -0.557071
v -0.004939 0.833534 -0.373837
v -0.004939 0.935118 -0.268730
v -0.004939 1.047974 -0.233528
v -0.140628 1.047974 -0.197961
v -0.155587 0.935118 -0.228447
v -0.237795 1.047974 -0.100792
v -0.210058 0.833534 -0.319473
v -0.265641 0.935118 -0.118392
v -0.273362 1.047974 0.031944
v -0.305924 0.935118 0.031944
v -0.358588 0.833534 -0.170947
v -0.412949 0.833534 0.031944
v -0.296806 0.762610 -0.478158
v -0.512401 0.762609 -0.262565
v -0.591313 0.762609 0.031944
v -0.324508 0.531844 -0.529037
v -0.561607 0.531844 -0.291939
v -0.648391 0.531844 0.031944
v -0.310745 0.340928 -0.512079
v -0.540676 0.340928 -0.282148
v -0.624836 0.340928 0.031944
v -0.282278 0.185695 -0.430939
v -0.226058 0.070312 -0.336526
v -0.477918 0.185695 -0.235301
v -0.549523 0.185695 0.031944
v -0.381791 0.070312 -0.180793
v -0.438794 0.070312 0.031944
v -0.004939 1.045025 0.028610
v 0.079190 1.045025 -0.244483
v -0.004939 1.045025 -0.184071
v 0.202083 1.045025 -0.230231
v 0.286496 1.045025 -0.147929
v 0.328913 1.045025 -0.049758
v 0.331579 1.045025 0.034372
v 0.244186 1.046499 0.166232
v 0.123788 1.045025 0.311023
v -0.004939 1.045025 0.390747
v -0.004939 1.045025 0.028610
v -0.004939 1.045025 -0.184071
v -0.089069 1.045025 -0.244483
v -0.211962 1.045025 -0.230231
v -0.296374 1.045025 -0.147929
v -0.338792 1.045025 -0.049758
v -0.341458 1.045025 0.034372
v -0.254064 1.046499 0.166232
v -0.133666 1.045025 0.311023
v -0.004939 1.045025 0.390747
v 0.216180 0.070312 -0.336526
v -0.004939 0.009528 0.031944
v 0.371913 0.070312 -0.180793
v -0.004939 0.070312 -0.393530
v 0.428915 0.070312 0.031944
v -0.226058 0.070312 -0.336526
v 0.371913 0.070312 0.244681
v -0.381791 0.070312 -0.180793
v 0.216180 0.070312 0.400415
v -0.438794 0.070312 0.031944
v -0.004939 0.070312 0.457418
v -0.381791 0.070312 0.244681
v -0.226058 0.070312 0.400415
v 0.079190 1.242794 -0.244483
v 0.202083 1.242794 -0.230231
v -0.004939 1.242794 0.034372
v -0.004939 1.242794 -0.184071
v 0.286496 1.242794 -0.147929
v -0.089069 1.242794 -0.244483
v 0.328913 1.242794 -0.049758
v -0.211962 1.242794 -0.230231
v 0.331579 1.242794 0.034372
v -0.296374 1.242794 -0.147929
v 0.260453 1.242794 0.167785
v -0.338792 1.242794 -0.049758
v 0.123788 1.242794 0.311023
v -0.341458 1.242794 0.034372
v -0.004939 1.242794 0.390747
v -0.270331 1.242794 0.167785
v -0.133666 1.242794 0.311023
vt 0.968808 0.579925
vt 0.968808 0.675466
vt 0.924237 0.579925
vt 0.924237 0.675466
vt 0.968808 0.758443
vt 0.862669 0.579925
vt 0.924237 0.758443
vt 0.862669 0.675466
vt 0.798376 0.579925
vt 0.862669 0.758443
vt 0.798376 0.675466
vt 0.729798 0.579925
vt 0.798376 0.758443
vt 0.729798 0.675466
vt 0.671029 0.579925
vt 0.729798 0.758443
vt 0.671029 0.675466
vt 0.570645 0.579925
vt 0.671029 0.758443
vt 0.570645 0.675466
vt 0.462591 0.579925
vt 0.570645 0.758443
vt 0.462591 0.675466
vt 0.402451 0.579925
vt 0.462591 0.758443
vt 0.402452 0.675466
vt 0.402451 0.758443
vt 0.968808 0.675466
vt 0.968808 0.579925
vt 0.924237 0.579925
vt 0.924237 0.675466
vt 0.968808 0.758443
vt 0.862669 0.579925
vt 0.924237 0.758443
vt 0.862669 0.675466
vt 0.798376 0.579925
vt 0.862669 0.758443
vt 0.798376 0.675466
vt 0.729798 0.579925
vt 0.798376 0.758443
vt 0.729798 0.675466
vt 0.671029 0.579925
vt 0.729798 0.758443
vt 0.671029 0.675466
vt 0.570645 0.579925
vt 0.671029 0.758443
vt 0.570645 0.675466
vt 0.462591 0.579925
vt 0.570645 0.758443
vt 0.462591 0.675466
vt 0.402451 0.579925
vt 0.462591 0.758443
vt 0.402452 0.675466
vt 0.402451 0.758443
vt 0.966413 0.009536
vt 0.966413 0.064484
vt 0.784778 0.009536
vt 0.784778 0.064484
vt 0.645630 0.009536
vt 0.966413 0.144889
vt 0.645630 0.064484
vt 0.784778 0.144889
vt 0.966413 0.229328
vt 0.484260 0.009536
vt 0.784778 0.229328
vt 0.966413 0.344040
vt 0.645630 0.144889
vt 0.484260 0.064484
vt 0.784778 0.344040
vt 0.966413 0.414456
vt 0.645630 0.229328
vt 0.784778 0.414456
vt 0.966413 0.493853
vt 0.645630 0.344040
vt 0.484260 0.144889
vt 0.484260 0.229328
vt 0.784778 0.493853
vt 0.966413 0.560656
vt 0.784778 0.560656
vt 0.645630 0.414456
vt 0.645630 0.493853
vt 0.645630 0.560656
vt 0.484260 0.344040
vt 0.484260 0.414456
vt 0.484260 0.493853
vt 0.484260 0.560656
vt 0.332633 0.560656
vt 0.332633 0.493853
vt 0.206840 0.560656
vt 0.332633 0.414456
vt 0.206840 0.493853
vt 0.042638 0.560656
vt 0.042638 0.493853
vt 0.206840 0.414456
vt 0.042638 0.414456
vt 0.332633 0.344040
vt 0.206840 0.344040
vt 0.042638 0.344040
vt 0.332633 0.229328
vt 0.206840 0.229328
vt 0.042638 0.229328
vt 0.332633 0.144889
vt 0.206840 0.144889
vt 0.042638 0.144889
vt 0.332633 0.064484
vt 0.332633 0.009536
vt 0.206840 0.064484
vt 0.042638 0.064484
vt 0.206840 0.009536
vt 0.042638 0.009536
vt 0.966413 0.064484
vt 0.966413 0.009536
vt 0.784778 0.009536
vt 0.784778 0.064484
vt 0.645630 0.009536
vt 0.966413 0.144889
vt 0.645630 0.064484
vt 0.484260 0.009536
vt 0.784778 0.144889
vt 0.966413 0.229328
vt 0.484260 0.064484
vt 0.784778 0.229328
vt 0.966413 0.344040
vt 0.645630 0.144889
vt 0.784778 0.344040
vt 0.966413 0.414456
vt 0.645630 0.229328
vt 0.484260 0.144889
vt 0.784778 0.414456
vt 0.966413 0.493853
vt 0.645630 0.344040
vt 0.484260 0.229328
vt 0.784778 0.493853
vt 0.966413 0.560656
vt 0.784778 0.560656
vt 0.645630 0.414456
vt 0.645630 0.493853
vt 0.645630 0.560656
vt 0.484260 0.344040
vt 0.484260 0.414456
vt 0.484260 0.493853
vt 0.484260 0.560656
vt 0.332633 0.560656
vt 0.332633 0.493853
vt 0.206840 0.560656
vt 0.332633 0.414456
vt 0.206840 0.493853
vt 0.042638 0.560656
vt 0.042638 0.493853
vt 0.206840 0.414456
vt 0.042638 0.414456
vt 0.332633 0.344040
vt 0.206840 0.344040
vt 0.042638 0.344040
vt 0.332633 0.229328
vt 0.206840 0.229328
vt 0.042638 0.229328
vt 0.332633 0.144889
vt 0.206840 0.144889
vt 0.042638 0.144889
vt 0.332633 0.064484
vt 0.332633 0.009536
vt 0.206840 0.064484
vt 0.042638 0.064484
vt 0.206840 0.009536
vt 0.042638 0.009536
vt 0.471548 0.808571
vt 0.439181 0.853646
vt 0.585499 0.808571
vt 0.446816 0.919489
vt 0.490913 0.964717
vt 0.543511 0.987444
vt 0.588586 0.988873
vt 0.660067 0.950765
vt 0.736812 0.877541
vt 0.779527 0.808571
vt 0.439181 0.853646
vt 0.471548 0.808571
vt 0.585499 0.808571
vt 0.446816 0.919489
vt 0.490913 0.964717
vt 0.543511 0.987444
vt 0.588586 0.988873
vt 0.660067 0.950765
vt 0.736812 0.877541
vt 0.779527 0.808571
vt 0.968454 0.836054
vt 0.886560 0.882284
vt 0.934612 0.802211
vt 0.886560 0.789824
vt 0.980842 0.882284
vt 0.838509 0.802211
vt 0.968454 0.928514
vt 0.804666 0.836054
vt 0.934612 0.962357
vt 0.792279 0.882284
vt 0.886560 0.974744
vt 0.804666 0.928514
vt 0.838509 0.962357
vt 0.215827 0.817849
vt 0.344241 0.981981
vt 0.268013 0.990821
vt 0.215827 0.953349
vt 0.396602 0.930929
vt 0.163642 0.990821
vt 0.422914 0.870034
vt 0.087413 0.981981
vt 0.424568 0.817849
vt 0.035052 0.930929
vt 0.380449 0.735094
vt 0.008741 0.870034
vt 0.295677 0.646243
vt 0.007086 0.817849
vt 0.215827 0.596791
vt 0.051205 0.735094
vt 0.135978 0.646243
vn -0.0000 -0.8489 -0.5285
vn 0.0000 0.0008 -1.0000
vn -0.1588 -0.7538 -0.6377
vn -0.1897 -0.0003 -0.9818
vn 0.0000 0.8860 -0.4637
vn 0.2444 -0.8060 -0.5391
vn -0.1468 0.8007 -0.5808
vn 0.4331 -0.0010 -0.9013
vn 0.4392 -0.8435 -0.3093
vn 0.2203 0.8447 -0.4877
vn 0.8188 -0.0006 -0.5741
vn 0.5160 -0.8471 -0.1270
vn 0.3942 0.8760 -0.2777
vn 0.9704 -0.0006 -0.2413
vn 0.5608 -0.8016 0.2073
vn 0.4641 0.8784 -0.1141
vn 0.9513 -0.0260 0.3072
vn 0.4452 -0.8284 0.3397
vn 0.5159 0.8401 0.1678
vn 0.8024 -0.0325 0.5959
vn 0.3843 -0.8146 0.4345
vn 0.4232 0.8475 0.3202
vn 0.6461 -0.0170 0.7630
vn 0.0000 -0.7797 0.6262
vn 0.3412 0.8495 0.4023
vn -0.0000 -0.0019 1.0000
vn 0.0000 0.8144 0.5802
vn 0.1588 -0.7538 -0.6377
vn 0.1897 -0.0003 -0.9818
vn -0.2444 -0.8060 -0.5391
vn 0.1468 0.8007 -0.5808
vn -0.4331 -0.0010 -0.9013
vn -0.4392 -0.8435 -0.3093
vn -0.2203 0.8447 -0.4877
vn -0.8188 -0.0006 -0.5741
vn -0.5160 -0.8471 -0.1270
vn -0.3942 0.8760 -0.2777
vn -0.9704 -0.0006 -0.2413
vn -0.5608 -0.8016 0.2073
vn -0.4641 0.8784 -0.1141
vn -0.9513 -0.0260 0.3072
vn -0.4452 -0.8284 0.3397
vn -0.5159 0.8401 0.1678
vn -0.8024 -0.0325 0.5959
vn -0.3843 -0.8146 0.4345
vn -0.4232 0.8475 0.3202
vn -0.6461 -0.0170 0.7630
vn -0.3412 0.8495 0.4023
vn 0.4697 -0.8828 0.0000
vn 0.8405 -0.5419 -0.0000
vn 0.4075 -0.8823 0.2355
vn 0.7271 -0.5474 0.4142
vn 0.2326 -0.8806 0.4128
vn 0.9657 -0.2598 -0.0000
vn 0.4166 -0.5658 0.7116
vn 0.8330 -0.2641 0.4863
vn 0.9972 0.0746 0.0000
vn 0.0000 -0.8803 0.4744
vn 0.8637 0.0763 0.4981
vn 0.8473 0.5311 -0.0000
vn 0.4754 -0.2790 0.8344
vn -0.0000 -0.5790 0.8154
vn 0.7328 0.5325 0.4235
vn 0.4702 0.8825 -0.0000
vn 0.5023 0.0822 0.8608
vn 0.4069 0.8830 0.2341
vn 0.8164 0.5774 -0.0102
vn 0.4233 0.5380 0.7290
vn -0.0000 -0.2880 0.9576
vn -0.0000 0.0865 0.9962
vn 0.7084 0.5705 0.4155
vn 0.9695 0.2431 -0.0311
vn 0.8505 0.2248 0.4756
vn 0.2344 0.8842 0.4040
vn 0.3998 0.5775 0.7117
vn 0.4663 0.2636 0.8444
vn 0.0000 0.5417 0.8406
vn 0.0000 0.8848 0.4660
vn 0.0000 0.5855 0.8107
vn 0.0000 0.2949 0.9555
vn -0.4663 0.2635 0.8444
vn -0.3998 0.5775 0.7117
vn -0.8505 0.2248 0.4756
vn -0.2344 0.8842 0.4040
vn -0.7084 0.5705 0.4155
vn -0.9695 0.2431 -0.0311
vn -0.8164 0.5774 -0.0102
vn -0.4068 0.8830 0.2343
vn -0.4702 0.8825 -0.0000
vn -0.4233 0.5380 0.7290
vn -0.7330 0.5325 0.4232
vn -0.8473 0.5311 -0.0000
vn -0.5023 0.0822 0.8608
vn -0.8638 0.0763 0.4980
vn -0.9972 0.0746 0.0000
vn -0.4754 -0.2790 0.8344
vn -0.8330 -0.2641 0.4863
vn -0.9657 -0.2598 -0.0000
vn -0.4166 -0.5658 0.7116
vn -0.2326 -0.8806 0.4128
vn -0.7271 -0.5474 0.4142
vn -0.8405 -0.5419 -0.0000
vn -0.4075 -0.8823 0.2355
vn -0.4697 -0.8828 0.0000
vn 0.4074 -0.8824 -0.2355
vn 0.7271 -0.5474 -0.4142
vn 0.2326 -0.8806 -0.4128
vn 0.4166 -0.5658 -0.7116
vn 0.0000 -0.8803 -0.4744
vn 0.8330 -0.2641 -0.4863
vn 0.0000 -0.5790 -0.8154
vn 0.8637 0.0763 -0.4981
vn 0.4754 -0.2790 -0.8344
vn 0.7330 0.5325 -0.4232
vn 0.5023 0.0822 -0.8608
vn -0.0000 -0.2880 -0.9576
vn 0.4069 0.8830 -0.2341
vn 0.4233 0.5380 -0.7290
vn 0.0000 0.0865 -0.9962
vn 0.7011 0.5862 -0.4061
vn 0.8323 0.2800 -0.4784
vn 0.2344 0.8842 -0.4040
vn 0.4018 0.5861 -0.7036
vn 0.4788 0.2890 -0.8290
vn 0.0000 0.5417 -0.8406
vn 0.0000 0.8848 -0.4660
vn 0.0000 0.5855 -0.8107
vn -0.0000 0.2949 -0.9555
vn -0.4788 0.2890 -0.8290
vn -0.4018 0.5861 -0.7036
vn -0.8323 0.2800 -0.4784
vn -0.2344 0.8842 -0.4040
vn -0.7013 0.5862 -0.4056
vn -0.4069 0.8830 -0.2341
vn -0.4233 0.5380 -0.7290
vn -0.7330 0.5325 -0.4232
vn -0.5023 0.0822 -0.8608
vn -0.8637 0.0763 -0.4981
vn -0.4754 -0.2790 -0.8344
vn -0.8330 -0.2641 -0.4863
vn -0.4166 -0.5658 -0.7116
vn -0.2326 -0.8806 -0.4128
vn -0.7271 -0.5474 -0.4142
vn -0.4075 -0.8823 -0.2355
vn -0.1588 -0.7537 -0.6377
vn -0.0000 -1.0000 0.0010
vn 0.4452 -0.8285 0.3397
vn 0.3843 -0.8145 0.4345
vn -0.0002 -0.7797 0.6261
vn 0.1588 -0.7537 -0.6377
vn -0.4452 -0.8285 0.3397
vn -0.3843 -0.8145 0.4345
vn -0.0000 -0.7797 0.6261
vn 0.0000 -1.0000 -0.0000
vn 0.4074 -0.8824 0.2355
vn -0.4074 -0.8824 -0.2355
vn -0.4074 -0.8824 0.2355
vn -0.0000 1.0000 0.0000
vn 0.2204 0.8447 -0.4877
vn 0.4641 0.8784 -0.1142
vn 0.5159 0.8400 0.1678
vn 0.4232 0.8476 0.3202
vn -0.4641 0.8784 -0.1142
vn -0.5159 0.8400 0.1678
vn -0.4232 0.8476 0.3202
usemtl it06_mat_DRINK
s 1
f 3/1/1 2/2/2 1/3/3
f 2/2/2 4/4/4 1/3/3
f 2/2/2 5/5/5 4/4/4
f 1/3/3 4/4/4 6/6/6
f 5/5/5 7/7/7 4/4/4
f 4/4/4 8/8/8 6/6/6
f 4/4/4 7/7/7 8/8/8
f 6/6/6 8/8/8 9/9/9
f 7/7/7 10/10/10 8/8/8
f 8/8/8 11/11/11 9/9/9
f 8/8/8 10/10/10 11/11/11
f 9/9/9 11/11/11 12/12/12
f 10/10/10 13/13/13 11/11/11
f 11/11/11 14/14/14 12/12/12
f 11/11/11 13/13/13 14/14/14
f 12/12/12 14/14/14 15/15/15
f 13/13/13 16/16/16 14/14/14
f 14/14/14 17/17/17 15/15/15
f 14/14/14 16/16/16 17/17/17
f 15/15/15 17/17/17 18/18/18
f 16/16/16 19/19/19 17/17/17
f 17/17/17 20/20/20 18/18/18
f 17/17/17 19/19/19 20/20/20
f 18/18/18 20/20/20 21/21/21
f 19/19/19 22/22/22 20/20/20
f 20/20/20 23/23/23 21/21/21
f 20/20/20 22/22/22 23/23/23
f 21/21/21 23/23/23 24/24/24
f 22/22/22 25/25/25 23/23/23
f 23/23/23 26/26/26 24/24/24
f 23/23/23 25/25/25 26/26/26
f 25/25/25 27/27/27 26/26/26
f 30/28/2 29/29/1 28/30/28
f 31/31/29 30/28/2 28/30/28
f 32/32/5 30/28/2 31/31/29
f 31/31/29 28/30/28 33/33/30
f 34/34/31 32/32/5 31/31/29
f 35/35/32 31/31/29 33/33/30
f 34/34/31 31/31/29 35/35/32
f 35/35/32 33/33/30 36/36/33
f 37/37/34 34/34/31 35/35/32
f 38/38/35 35/35/32 36/36/33
f 37/37/34 35/35/32 38/38/35
f 38/38/35 36/36/33 39/39/36
f 40/40/37 37/37/34 38/38/35
f 41/41/38 38/38/35 39/39/36
f 40/40/37 38/38/35 41/41/38
f 41/41/38 39/39/36 42/42/39
f 43/43/40 40/40/37 41/41/38
f 44/44/41 41/41/38 42/42/39
f 43/43/40 41/41/38 44/44/41
f 44/44/41 42/42/39 45/45/42
f 46/46/43 43/43/40 44/44/41
f 47/47/44 44/44/41 45/45/42
f 46/46/43 44/44/41 47/47/44
f 47/47/44 45/45/42 48/48/45
f 49/49/46 46/46/43 47/47/44
f 50/50/47 47/47/44 48/48/45
f 49/49/46 47/47/44 50/50/47
f 50/50/47 48/48/45 51/51/24
f 52/52/48 49/49/46 50/50/47
f 53/53/26 50/50/47 51/51/24
f 52/52/48 50/50/47 53/53/26
f 54/54/27 52/52/48 53/53/26
f 57/55/49 56/56/50 55/57/51
f 56/56/50 58/58/52 55/57/51
f 55/57/51 58/58/52 59/59/53
f 56/56/50 60/60/54 58/58/52
f 58/58/52 61/61/55 59/59/53
f 60/60/54 62/62/56 58/58/52
f 58/58/52 62/62/56 61/61/55
f 60/60/54 63/63/57 62/62/56
f 59/59/53 61/61/55 64/64/58
f 63/63/57 65/65/59 62/62/56
f 63/63/57 66/66/60 65/65/59
f 62/62/56 67/67/61 61/61/55
f 62/62/56 65/65/59 67/67/61
f 61/61/55 68/68/62 64/64/58
f 61/61/55 67/67/61 68/68/62
f 66/66/60 69/69/63 65/65/59
f 66/66/60 70/70/64 69/69/63
f 65/65/59 71/71/65 67/67/61
f 65/65/59 69/69/63 71/71/65
f 70/70/64 72/72/66 69/69/63
f 70/70/64 73/73/67 72/72/66
f 69/69/63 74/74/68 71/71/65
f 69/69/63 72/72/66 74/74/68
f 67/67/61 71/71/65 75/75/69
f 67/67/61 75/75/69 68/68/62
f 71/71/65 74/74/68 76/76/70
f 71/71/65 76/76/70 75/75/69
f 73/73/67 77/77/71 72/72/66
f 73/73/67 78/78/72 77/77/71
f 78/78/72 79/79/73 77/77/71
f 72/72/66 80/80/74 74/74/68
f 72/72/66 77/77/71 80/80/74
f 77/77/71 79/79/73 81/81/75
f 77/77/71 81/81/75 80/80/74
f 79/79/73 82/82/76 81/81/75
f 74/74/68 80/80/74 83/83/77
f 74/74/68 83/83/77 76/76/70
f 80/80/74 81/81/75 84/84/78
f 80/80/74 84/84/78 83/83/77
f 81/81/75 82/82/76 85/85/79
f 81/81/75 85/85/79 84/84/78
f 82/82/76 86/86/80 85/85/79
f 86/86/80 87/87/81 85/85/79
f 87/87/81 88/88/82 85/85/79
f 85/85/79 88/88/82 84/84/78
f 87/87/81 89/89/83 88/88/82
f 84/84/78 90/90/84 83/83/77
f 88/88/82 90/90/84 84/84/78
f 89/89/83 91/91/85 88/88/82
f 88/88/82 91/91/85 90/90/84
f 89/89/83 92/92/86 91/91/85
f 92/92/86 93/93/87 91/91/85
f 91/91/85 93/93/87 94/94/88
f 91/91/85 94/94/88 90/90/84
f 93/93/87 95/95/89 94/94/88
f 90/90/84 96/96/90 83/83/77
f 90/90/84 94/94/88 96/96/90
f 83/83/77 96/96/90 76/76/70
f 94/94/88 95/95/89 97/97/91
f 94/94/88 97/97/91 96/96/90
f 95/95/89 98/98/92 97/97/91
f 96/96/90 99/99/93 76/76/70
f 96/96/90 97/97/91 99/99/93
f 76/76/70 99/99/93 75/75/69
f 97/97/91 98/98/92 100/100/94
f 97/97/91 100/100/94 99/99/93
f 98/98/92 101/101/95 100/100/94
f 99/99/93 102/102/96 75/75/69
f 99/99/93 100/100/94 102/102/96
f 75/75/69 102/102/96 68/68/62
f 100/100/94 101/101/95 103/103/97
f 100/100/94 103/103/97 102/102/96
f 101/101/95 104/104/98 103/103/97
f 102/102/96 105/105/99 68/68/62
f 102/102/96 103/103/97 105/105/99
f 68/68/62 105/105/99 64/64/58
f 105/105/99 106/106/100 64/64/58
f 103/103/97 104/104/98 107/107/101
f 103/103/97 107/107/101 105/105/99
f 105/105/99 107/107/101 106/106/100
f 104/104/98 108/108/102 107/107/101
f 107/107/101 109/109/103 106/106/100
f 107/107/101 108/108/102 109/109/103
f 108/108/102 110/110/104 109/109/103
f 113/111/50 112/112/49 111/113/105
f 114/114/106 113/111/50 111/113/105
f 114/114/106 111/113/105 115/115/107
f 116/116/54 113/111/50 114/114/106
f 117/117/108 114/114/106 115/115/107
f 117/117/108 115/115/107 118/118/109
f 119/119/110 116/116/54 114/114/106
f 119/119/110 114/114/106 117/117/108
f 120/120/57 116/116/54 119/119/110
f 121/121/111 117/117/108 118/118/109
f 122/122/112 120/120/57 119/119/110
f 123/123/60 120/120/57 122/122/112
f 124/124/113 119/119/110 117/117/108
f 122/122/112 119/119/110 124/124/113
f 124/124/113 117/117/108 121/121/111
f 125/125/114 123/123/60 122/122/112
f 126/126/64 123/123/60 125/125/114
f 127/127/115 122/122/112 124/124/113
f 125/125/114 122/122/112 127/127/115
f 128/128/116 124/124/113 121/121/111
f 127/127/115 124/124/113 128/128/116
f 129/129/117 126/126/64 125/125/114
f 130/130/67 126/126/64 129/129/117
f 131/131/118 125/125/114 127/127/115
f 129/129/117 125/125/114 131/131/118
f 132/132/119 127/127/115 128/128/116
f 131/131/118 127/127/115 132/132/119
f 133/133/120 130/130/67 129/129/117
f 134/134/72 130/130/67 133/133/120
f 135/135/121 134/134/72 133/133/120
f 136/136/122 129/129/117 131/131/118
f 133/133/120 129/129/117 136/136/122
f 135/135/121 133/133/120 137/137/123
f 137/137/123 133/133/120 136/136/122
f 138/138/124 135/135/121 137/137/123
f 136/136/122 131/131/118 139/139/125
f 139/139/125 131/131/118 132/132/119
f 137/137/123 136/136/122 140/140/126
f 140/140/126 136/136/122 139/139/125
f 138/138/124 137/137/123 141/141/127
f 141/141/127 137/137/123 140/140/126
f 142/142/128 138/138/124 141/141/127
f 143/143/129 142/142/128 141/141/127
f 144/144/130 143/143/129 141/141/127
f 144/144/130 141/141/127 140/140/126
f 145/145/131 143/143/129 144/144/130
f 146/146/132 140/140/126 139/139/125
f 146/146/132 144/144/130 140/140/126
f 147/147/133 145/145/131 144/144/130
f 147/147/133 144/144/130 146/146/132
f 148/148/86 145/145/131 147/147/133
f 149/149/87 148/148/86 147/147/133
f 149/149/87 147/147/133 150/150/134
f 150/150/134 147/147/133 146/146/132
f 151/151/89 149/149/87 150/150/134
f 152/152/135 146/146/132 139/139/125
f 150/150/134 146/146/132 152/152/135
f 152/152/135 139/139/125 132/132/119
f 151/151/89 150/150/134 153/153/136
f 153/153/136 150/150/134 152/152/135
f 154/154/92 151/151/89 153/153/136
f 155/155/137 152/152/135 132/132/119
f 153/153/136 152/152/135 155/155/137
f 155/155/137 132/132/119 128/128/116
f 154/154/92 153/153/136 156/156/138
f 156/156/138 153/153/136 155/155/137
f 157/157/95 154/154/92 156/156/138
f 158/158/139 155/155/137 128/128/116
f 156/156/138 155/155/137 158/158/139
f 158/158/139 128/128/116 121/121/111
f 157/157/95 156/156/138 159/159/140
f 159/159/140 156/156/138 158/158/139
f 160/160/98 157/157/95 159/159/140
f 161/161/141 158/158/139 121/121/111
f 159/159/140 158/158/139 161/161/141
f 161/161/141 121/121/111 118/118/109
f 162/162/142 161/161/141 118/118/109
f 160/160/98 159/159/140 163/163/143
f 163/163/143 159/159/140 161/161/141
f 163/163/143 161/161/141 162/162/142
f 164/164/102 160/160/98 163/163/143
f 165/165/144 163/163/143 162/162/142
f 164/164/102 163/163/143 165/165/144
f 166/166/104 164/164/102 165/165/144
f 169/167/1 168/168/145 167/169/146
f 167/169/146 168/168/145 170/170/6
f 167/169/146 170/170/6 171/171/9
f 171/171/9 172/172/12 167/169/146
f 167/169/146 172/172/12 173/173/15
f 173/173/15 174/174/147 167/169/146
f 167/169/146 174/174/147 175/175/148
f 167/169/146 175/175/148 176/176/149
f 179/177/150 178/178/1 177/179/146
f 179/177/150 177/179/146 180/180/30
f 180/180/30 177/179/146 181/181/33
f 182/182/36 181/181/33 177/179/146
f 182/182/36 177/179/146 183/183/39
f 184/184/151 183/183/39 177/179/146
f 184/184/151 177/179/146 185/185/152
f 185/185/152 177/179/146 186/186/153
f 189/187/105 188/188/154 187/189/107
f 187/189/107 188/188/154 190/190/109
f 191/191/49 188/188/154 189/187/105
f 188/188/154 192/192/142 190/190/109
f 193/193/155 188/188/154 191/191/49
f 188/188/154 194/194/156 192/192/142
f 195/195/53 188/188/154 193/193/155
f 188/188/154 196/196/104 194/194/156
f 197/197/58 188/188/154 195/195/53
f 188/188/154 198/198/157 196/196/104
f 188/188/154 197/197/58 199/199/100
f 188/188/154 199/199/100 198/198/157
f 202/200/158 201/201/159 200/202/7
f 203/203/5 202/200/158 200/202/7
f 201/201/159 202/200/158 204/204/13
f 202/200/158 203/203/5 205/205/31
f 206/206/160 204/204/13 202/200/158
f 207/207/34 202/200/158 205/205/31
f 206/206/160 202/200/158 208/208/161
f 202/200/158 207/207/34 209/209/37
f 210/210/162 208/208/161 202/200/158
f 209/209/37 211/211/163 202/200/158
f 210/210/162 202/200/158 212/212/25
f 202/200/158 211/211/163 213/213/164
f 212/212/25 202/200/158 214/214/27
f 213/213/164 215/215/165 202/200/158
f 202/200/158 216/216/48 214/214/27
f 202/200/158 215/215/165 216/216/48
